<svg width="353" height="158" viewBox="0 0 353 158" fill="none" xmlns="http://www.w3.org/2000/svg">
<circle cx="203.5" cy="46.5" r="11" stroke="#449BF7" stroke-width="9"/>
<circle cx="44.5" cy="47.5" r="13.5" stroke="#C8C8C8" stroke-width="4"/>
<path d="M242.604 54H239.5V42.0332L235.794 43.1826V40.6582L242.271 38.3379H242.604V54Z" fill="#888888"/>
<path d="M258.224 47.5332C258.224 49.696 257.776 51.3503 256.881 52.4961C255.986 53.6419 254.675 54.2148 252.949 54.2148C251.245 54.2148 249.941 53.6527 249.039 52.5283C248.137 51.404 247.675 49.7926 247.653 47.6943V44.8154C247.653 42.6312 248.104 40.9733 249.007 39.8418C249.916 38.7103 251.223 38.1445 252.928 38.1445C254.632 38.1445 255.936 38.7067 256.838 39.8311C257.74 40.9482 258.202 42.556 258.224 44.6543V47.5332ZM255.119 44.375C255.119 43.0788 254.94 42.137 254.582 41.5498C254.231 40.9554 253.68 40.6582 252.928 40.6582C252.197 40.6582 251.657 40.9411 251.306 41.5068C250.962 42.0654 250.779 42.9427 250.758 44.1387V47.9414C250.758 49.2161 250.93 50.165 251.273 50.7881C251.624 51.404 252.183 51.7119 252.949 51.7119C253.708 51.7119 254.256 51.4147 254.593 50.8203C254.929 50.2259 255.105 49.3164 255.119 48.0918V44.375Z" fill="#888888"/>
<path d="M270.856 47.5332C270.856 49.696 270.409 51.3503 269.514 52.4961C268.618 53.6419 267.308 54.2148 265.582 54.2148C263.878 54.2148 262.574 53.6527 261.672 52.5283C260.77 51.404 260.308 49.7926 260.286 47.6943V44.8154C260.286 42.6312 260.737 40.9733 261.64 39.8418C262.549 38.7103 263.856 38.1445 265.561 38.1445C267.265 38.1445 268.568 38.7067 269.471 39.8311C270.373 40.9482 270.835 42.556 270.856 44.6543V47.5332ZM267.752 44.375C267.752 43.0788 267.573 42.137 267.215 41.5498C266.864 40.9554 266.312 40.6582 265.561 40.6582C264.83 40.6582 264.289 40.9411 263.938 41.5068C263.595 42.0654 263.412 42.9427 263.391 44.1387V47.9414C263.391 49.2161 263.562 50.165 263.906 50.7881C264.257 51.404 264.816 51.7119 265.582 51.7119C266.341 51.7119 266.889 51.4147 267.226 50.8203C267.562 50.2259 267.738 49.3164 267.752 48.0918V44.375Z" fill="#888888"/>
<path d="M290.611 38.3594V48.6611C290.611 50.3727 290.074 51.7262 289 52.7217C287.933 53.7171 286.472 54.2148 284.617 54.2148C282.791 54.2148 281.341 53.7314 280.267 52.7646C279.192 51.7979 278.645 50.4694 278.623 48.7793V38.3594H281.846V48.6826C281.846 49.7067 282.089 50.4551 282.576 50.9277C283.07 51.3932 283.751 51.626 284.617 51.626C286.429 51.626 287.349 50.6735 287.378 48.7686V38.3594H290.611Z" fill="#888888"/>
<path d="M301.364 49.8965C301.364 49.2878 301.149 48.8223 300.72 48.5C300.29 48.1706 299.517 47.8268 298.399 47.4688C297.282 47.1035 296.398 46.7454 295.746 46.3945C293.97 45.4349 293.082 44.1423 293.082 42.5166C293.082 41.6715 293.318 40.9196 293.791 40.2607C294.271 39.5947 294.955 39.0755 295.843 38.7031C296.738 38.3307 297.741 38.1445 298.851 38.1445C299.968 38.1445 300.963 38.3486 301.837 38.7568C302.711 39.1579 303.387 39.7272 303.867 40.4648C304.354 41.2025 304.598 42.0404 304.598 42.9785H301.375C301.375 42.2624 301.149 41.7074 300.698 41.3135C300.247 40.9124 299.613 40.7119 298.797 40.7119C298.009 40.7119 297.397 40.8802 296.96 41.2168C296.523 41.5462 296.305 41.9831 296.305 42.5273C296.305 43.0358 296.559 43.4619 297.067 43.8057C297.583 44.1494 298.339 44.4717 299.334 44.7725C301.167 45.3239 302.503 46.0078 303.341 46.8242C304.179 47.6406 304.598 48.6576 304.598 49.875C304.598 51.2285 304.086 52.292 303.062 53.0654C302.037 53.8317 300.659 54.2148 298.926 54.2148C297.723 54.2148 296.627 53.9964 295.639 53.5596C294.65 53.1156 293.895 52.5104 293.372 51.7441C292.856 50.9779 292.599 50.0898 292.599 49.0801H295.832C295.832 50.806 296.863 51.6689 298.926 51.6689C299.692 51.6689 300.29 51.515 300.72 51.207C301.149 50.8919 301.364 50.4551 301.364 49.8965Z" fill="#888888"/>
<path d="M306.789 54V38.3594H311.602C312.977 38.3594 314.205 38.6709 315.286 39.2939C316.375 39.9098 317.223 40.7907 317.832 41.9365C318.441 43.0752 318.745 44.3714 318.745 45.8252V46.5449C318.745 47.9987 318.444 49.2913 317.843 50.4229C317.248 51.5544 316.407 52.4316 315.318 53.0547C314.23 53.6777 313.002 53.9928 311.634 54H306.789ZM310.012 40.9697V51.4111H311.569C312.83 51.4111 313.793 50.9993 314.459 50.1758C315.125 49.3522 315.465 48.1742 315.479 46.6416V45.8145C315.479 44.2246 315.15 43.0215 314.491 42.2051C313.832 41.3815 312.869 40.9697 311.602 40.9697H310.012Z" fill="#888888"/>
<path d="M76.5254 47.3086L77.4277 39.3594H86.1934V41.9482H79.9736L79.5869 45.3105C80.3245 44.9167 81.1087 44.7197 81.9395 44.7197C83.429 44.7197 84.5964 45.1816 85.4414 46.1055C86.2865 47.0293 86.709 48.3219 86.709 49.9834C86.709 50.9932 86.4941 51.8991 86.0645 52.7012C85.6419 53.4961 85.0332 54.1156 84.2383 54.5596C83.4434 54.9964 82.5052 55.2148 81.4238 55.2148C80.4785 55.2148 79.6012 55.0251 78.792 54.6455C77.9827 54.2588 77.3418 53.7181 76.8691 53.0234C76.4036 52.3288 76.1566 51.5374 76.1279 50.6494H79.2002C79.2646 51.3011 79.4902 51.8096 79.877 52.1748C80.2708 52.5329 80.7829 52.7119 81.4131 52.7119C82.1149 52.7119 82.6556 52.4613 83.0352 51.96C83.4147 51.4515 83.6045 50.7354 83.6045 49.8115C83.6045 48.9235 83.3861 48.2432 82.9492 47.7705C82.5124 47.2979 81.8929 47.0615 81.0908 47.0615C80.3532 47.0615 79.7552 47.2549 79.2969 47.6416L78.9961 47.9209L76.5254 47.3086Z" fill="#888888"/>
<path d="M99.2236 48.5332C99.2236 50.696 98.776 52.3503 97.8809 53.4961C96.9857 54.6419 95.6751 55.2148 93.9492 55.2148C92.2448 55.2148 90.9414 54.6527 90.0391 53.5283C89.1367 52.404 88.6748 50.7926 88.6533 48.6943V45.8154C88.6533 43.6312 89.1045 41.9733 90.0068 40.8418C90.9163 39.7103 92.2233 39.1445 93.9277 39.1445C95.6322 39.1445 96.9355 39.7067 97.8379 40.8311C98.7402 41.9482 99.2021 43.556 99.2236 45.6543V48.5332ZM96.1191 45.375C96.1191 44.0788 95.9401 43.137 95.582 42.5498C95.2311 41.9554 94.6797 41.6582 93.9277 41.6582C93.1973 41.6582 92.6566 41.9411 92.3057 42.5068C91.9619 43.0654 91.7793 43.9427 91.7578 45.1387V48.9414C91.7578 50.2161 91.9297 51.165 92.2734 51.7881C92.6243 52.404 93.1829 52.7119 93.9492 52.7119C94.7083 52.7119 95.2562 52.4147 95.5928 51.8203C95.9294 51.2259 96.1048 50.3164 96.1191 49.0918V45.375Z" fill="#888888"/>
<path d="M118.979 39.3594V49.6611C118.979 51.3727 118.441 52.7262 117.367 53.7217C116.3 54.7171 114.839 55.2148 112.984 55.2148C111.158 55.2148 109.708 54.7314 108.634 53.7646C107.56 52.7979 107.012 51.4694 106.99 49.7793V39.3594H110.213V49.6826C110.213 50.7067 110.456 51.4551 110.943 51.9277C111.438 52.3932 112.118 52.626 112.984 52.626C114.796 52.626 115.716 51.6735 115.745 49.7686V39.3594H118.979Z" fill="#888888"/>
<path d="M129.731 50.8965C129.731 50.2878 129.517 49.8223 129.087 49.5C128.657 49.1706 127.884 48.8268 126.767 48.4688C125.649 48.1035 124.765 47.7454 124.113 47.3945C122.337 46.4349 121.449 45.1423 121.449 43.5166C121.449 42.6715 121.686 41.9196 122.158 41.2607C122.638 40.5947 123.322 40.0755 124.21 39.7031C125.105 39.3307 126.108 39.1445 127.218 39.1445C128.335 39.1445 129.33 39.3486 130.204 39.7568C131.078 40.1579 131.755 40.7272 132.234 41.4648C132.721 42.2025 132.965 43.0404 132.965 43.9785H129.742C129.742 43.2624 129.517 42.7074 129.065 42.3135C128.614 41.9124 127.98 41.7119 127.164 41.7119C126.376 41.7119 125.764 41.8802 125.327 42.2168C124.89 42.5462 124.672 42.9831 124.672 43.5273C124.672 44.0358 124.926 44.4619 125.435 44.8057C125.95 45.1494 126.706 45.4717 127.701 45.7725C129.535 46.3239 130.87 47.0078 131.708 47.8242C132.546 48.6406 132.965 49.6576 132.965 50.875C132.965 52.2285 132.453 53.292 131.429 54.0654C130.405 54.8317 129.026 55.2148 127.293 55.2148C126.09 55.2148 124.994 54.9964 124.006 54.5596C123.018 54.1156 122.262 53.5104 121.739 52.7441C121.224 51.9779 120.966 51.0898 120.966 50.0801H124.199C124.199 51.806 125.23 52.6689 127.293 52.6689C128.059 52.6689 128.657 52.515 129.087 52.207C129.517 51.8919 129.731 51.4551 129.731 50.8965Z" fill="#888888"/>
<path d="M135.156 55V39.3594H139.969C141.344 39.3594 142.572 39.6709 143.653 40.2939C144.742 40.9098 145.59 41.7907 146.199 42.9365C146.808 44.0752 147.112 45.3714 147.112 46.8252V47.5449C147.112 48.9987 146.812 50.2913 146.21 51.4229C145.616 52.5544 144.774 53.4316 143.686 54.0547C142.597 54.6777 141.369 54.9928 140.001 55H135.156ZM138.379 41.9697V52.4111H139.937C141.197 52.4111 142.16 51.9993 142.826 51.1758C143.492 50.3522 143.832 49.1742 143.847 47.6416V46.8145C143.847 45.2246 143.517 44.0215 142.858 43.2051C142.2 42.3815 141.236 41.9697 139.969 41.9697H138.379Z" fill="#888888"/>
<circle cx="44.5" cy="105.5" r="13.5" stroke="#C8C8C8" stroke-width="4"/>
<circle cx="203.5" cy="105.5" r="13.5" stroke="#C8C8C8" stroke-width="4"/>
<path d="M245.784 112H235.063V109.873L240.123 104.48C240.818 103.721 241.33 103.059 241.659 102.493C241.996 101.927 242.164 101.39 242.164 100.882C242.164 100.187 241.989 99.6429 241.638 99.249C241.287 98.848 240.785 98.6475 240.134 98.6475C239.432 98.6475 238.877 98.891 238.469 99.3779C238.068 99.8577 237.867 100.492 237.867 101.279H234.752C234.752 100.327 234.978 99.4567 235.429 98.6689C235.887 97.8812 236.532 97.2653 237.362 96.8213C238.193 96.3701 239.135 96.1445 240.188 96.1445C241.799 96.1445 243.049 96.5312 243.937 97.3047C244.832 98.0781 245.279 99.1702 245.279 100.581C245.279 101.354 245.079 102.142 244.678 102.944C244.277 103.746 243.589 104.681 242.615 105.748L239.06 109.497H245.784V112Z" fill="#888888"/>
<path d="M248.158 104.309L249.061 96.3594H257.826V98.9482H251.606L251.22 102.311C251.957 101.917 252.742 101.72 253.572 101.72C255.062 101.72 256.229 102.182 257.074 103.105C257.919 104.029 258.342 105.322 258.342 106.983C258.342 107.993 258.127 108.899 257.697 109.701C257.275 110.496 256.666 111.116 255.871 111.56C255.076 111.996 254.138 112.215 253.057 112.215C252.111 112.215 251.234 112.025 250.425 111.646C249.616 111.259 248.975 110.718 248.502 110.023C248.036 109.329 247.789 108.537 247.761 107.649H250.833C250.897 108.301 251.123 108.81 251.51 109.175C251.904 109.533 252.416 109.712 253.046 109.712C253.748 109.712 254.288 109.461 254.668 108.96C255.048 108.451 255.237 107.735 255.237 106.812C255.237 105.924 255.019 105.243 254.582 104.771C254.145 104.298 253.526 104.062 252.724 104.062C251.986 104.062 251.388 104.255 250.93 104.642L250.629 104.921L248.158 104.309Z" fill="#888888"/>
<path d="M270.856 105.533C270.856 107.696 270.409 109.35 269.514 110.496C268.618 111.642 267.308 112.215 265.582 112.215C263.878 112.215 262.574 111.653 261.672 110.528C260.77 109.404 260.308 107.793 260.286 105.694V102.815C260.286 100.631 260.737 98.9733 261.64 97.8418C262.549 96.7103 263.856 96.1445 265.561 96.1445C267.265 96.1445 268.568 96.7067 269.471 97.8311C270.373 98.9482 270.835 100.556 270.856 102.654V105.533ZM267.752 102.375C267.752 101.079 267.573 100.137 267.215 99.5498C266.864 98.9554 266.312 98.6582 265.561 98.6582C264.83 98.6582 264.289 98.9411 263.938 99.5068C263.595 100.065 263.412 100.943 263.391 102.139V105.941C263.391 107.216 263.562 108.165 263.906 108.788C264.257 109.404 264.816 109.712 265.582 109.712C266.341 109.712 266.889 109.415 267.226 108.82C267.562 108.226 267.738 107.316 267.752 106.092V102.375Z" fill="#888888"/>
<path d="M290.611 96.3594V106.661C290.611 108.373 290.074 109.726 289 110.722C287.933 111.717 286.472 112.215 284.617 112.215C282.791 112.215 281.341 111.731 280.267 110.765C279.192 109.798 278.645 108.469 278.623 106.779V96.3594H281.846V106.683C281.846 107.707 282.089 108.455 282.576 108.928C283.07 109.393 283.751 109.626 284.617 109.626C286.429 109.626 287.349 108.674 287.378 106.769V96.3594H290.611Z" fill="#888888"/>
<path d="M301.364 107.896C301.364 107.288 301.149 106.822 300.72 106.5C300.29 106.171 299.517 105.827 298.399 105.469C297.282 105.104 296.398 104.745 295.746 104.395C293.97 103.435 293.082 102.142 293.082 100.517C293.082 99.6715 293.318 98.9196 293.791 98.2607C294.271 97.5947 294.955 97.0755 295.843 96.7031C296.738 96.3307 297.741 96.1445 298.851 96.1445C299.968 96.1445 300.963 96.3486 301.837 96.7568C302.711 97.1579 303.387 97.7272 303.867 98.4648C304.354 99.2025 304.598 100.04 304.598 100.979H301.375C301.375 100.262 301.149 99.7074 300.698 99.3135C300.247 98.9124 299.613 98.7119 298.797 98.7119C298.009 98.7119 297.397 98.8802 296.96 99.2168C296.523 99.5462 296.305 99.9831 296.305 100.527C296.305 101.036 296.559 101.462 297.067 101.806C297.583 102.149 298.339 102.472 299.334 102.772C301.167 103.324 302.503 104.008 303.341 104.824C304.179 105.641 304.598 106.658 304.598 107.875C304.598 109.229 304.086 110.292 303.062 111.065C302.037 111.832 300.659 112.215 298.926 112.215C297.723 112.215 296.627 111.996 295.639 111.56C294.65 111.116 293.895 110.51 293.372 109.744C292.856 108.978 292.599 108.09 292.599 107.08H295.832C295.832 108.806 296.863 109.669 298.926 109.669C299.692 109.669 300.29 109.515 300.72 109.207C301.149 108.892 301.364 108.455 301.364 107.896Z" fill="#888888"/>
<path d="M306.789 112V96.3594H311.602C312.977 96.3594 314.205 96.6709 315.286 97.2939C316.375 97.9098 317.223 98.7907 317.832 99.9365C318.441 101.075 318.745 102.371 318.745 103.825V104.545C318.745 105.999 318.444 107.291 317.843 108.423C317.248 109.554 316.407 110.432 315.318 111.055C314.23 111.678 313.002 111.993 311.634 112H306.789ZM310.012 98.9697V109.411H311.569C312.83 109.411 313.793 108.999 314.459 108.176C315.125 107.352 315.465 106.174 315.479 104.642V103.814C315.479 102.225 315.15 101.021 314.491 100.205C313.832 99.3815 312.869 98.9697 311.602 98.9697H310.012Z" fill="#888888"/>
<path d="M86.7842 113H76.0635V110.873L81.123 105.48C81.8177 104.721 82.3298 104.059 82.6592 103.493C82.9958 102.927 83.1641 102.39 83.1641 101.882C83.1641 101.187 82.9886 100.643 82.6377 100.249C82.2868 99.848 81.7855 99.6475 81.1338 99.6475C80.432 99.6475 79.877 99.891 79.4688 100.378C79.0677 100.858 78.8672 101.492 78.8672 102.279H75.752C75.752 101.327 75.9775 100.457 76.4287 99.6689C76.887 98.8812 77.5316 98.2653 78.3623 97.8213C79.193 97.3701 80.1348 97.1445 81.1875 97.1445C82.7988 97.1445 84.0485 97.5312 84.9365 98.3047C85.8317 99.0781 86.2793 100.17 86.2793 101.581C86.2793 102.354 86.0788 103.142 85.6777 103.944C85.2767 104.746 84.5892 105.681 83.6152 106.748L80.0596 110.497H86.7842V113Z" fill="#888888"/>
<path d="M99.2236 106.533C99.2236 108.696 98.776 110.35 97.8809 111.496C96.9857 112.642 95.6751 113.215 93.9492 113.215C92.2448 113.215 90.9414 112.653 90.0391 111.528C89.1367 110.404 88.6748 108.793 88.6533 106.694V103.815C88.6533 101.631 89.1045 99.9733 90.0068 98.8418C90.9163 97.7103 92.2233 97.1445 93.9277 97.1445C95.6322 97.1445 96.9355 97.7067 97.8379 98.8311C98.7402 99.9482 99.2021 101.556 99.2236 103.654V106.533ZM96.1191 103.375C96.1191 102.079 95.9401 101.137 95.582 100.55C95.2311 99.9554 94.6797 99.6582 93.9277 99.6582C93.1973 99.6582 92.6566 99.9411 92.3057 100.507C91.9619 101.065 91.7793 101.943 91.7578 103.139V106.941C91.7578 108.216 91.9297 109.165 92.2734 109.788C92.6243 110.404 93.1829 110.712 93.9492 110.712C94.7083 110.712 95.2562 110.415 95.5928 109.82C95.9294 109.226 96.1048 108.316 96.1191 107.092V103.375Z" fill="#888888"/>
<path d="M111.856 106.533C111.856 108.696 111.409 110.35 110.514 111.496C109.618 112.642 108.308 113.215 106.582 113.215C104.878 113.215 103.574 112.653 102.672 111.528C101.77 110.404 101.308 108.793 101.286 106.694V103.815C101.286 101.631 101.737 99.9733 102.64 98.8418C103.549 97.7103 104.856 97.1445 106.561 97.1445C108.265 97.1445 109.568 97.7067 110.471 98.8311C111.373 99.9482 111.835 101.556 111.856 103.654V106.533ZM108.752 103.375C108.752 102.079 108.573 101.137 108.215 100.55C107.864 99.9554 107.312 99.6582 106.561 99.6582C105.83 99.6582 105.289 99.9411 104.938 100.507C104.595 101.065 104.412 101.943 104.391 103.139V106.941C104.391 108.216 104.562 109.165 104.906 109.788C105.257 110.404 105.816 110.712 106.582 110.712C107.341 110.712 107.889 110.415 108.226 109.82C108.562 109.226 108.738 108.316 108.752 107.092V103.375Z" fill="#888888"/>
<path d="M131.611 97.3594V107.661C131.611 109.373 131.074 110.726 130 111.722C128.933 112.717 127.472 113.215 125.617 113.215C123.791 113.215 122.341 112.731 121.267 111.765C120.192 110.798 119.645 109.469 119.623 107.779V97.3594H122.846V107.683C122.846 108.707 123.089 109.455 123.576 109.928C124.07 110.393 124.751 110.626 125.617 110.626C127.429 110.626 128.349 109.674 128.378 107.769V97.3594H131.611Z" fill="#888888"/>
<path d="M142.364 108.896C142.364 108.288 142.149 107.822 141.72 107.5C141.29 107.171 140.517 106.827 139.399 106.469C138.282 106.104 137.398 105.745 136.746 105.395C134.97 104.435 134.082 103.142 134.082 101.517C134.082 100.672 134.318 99.9196 134.791 99.2607C135.271 98.5947 135.955 98.0755 136.843 97.7031C137.738 97.3307 138.741 97.1445 139.851 97.1445C140.968 97.1445 141.963 97.3486 142.837 97.7568C143.711 98.1579 144.387 98.7272 144.867 99.4648C145.354 100.202 145.598 101.04 145.598 101.979H142.375C142.375 101.262 142.149 100.707 141.698 100.313C141.247 99.9124 140.613 99.7119 139.797 99.7119C139.009 99.7119 138.397 99.8802 137.96 100.217C137.523 100.546 137.305 100.983 137.305 101.527C137.305 102.036 137.559 102.462 138.067 102.806C138.583 103.149 139.339 103.472 140.334 103.772C142.167 104.324 143.503 105.008 144.341 105.824C145.179 106.641 145.598 107.658 145.598 108.875C145.598 110.229 145.086 111.292 144.062 112.065C143.037 112.832 141.659 113.215 139.926 113.215C138.723 113.215 137.627 112.996 136.639 112.56C135.65 112.116 134.895 111.51 134.372 110.744C133.856 109.978 133.599 109.09 133.599 108.08H136.832C136.832 109.806 137.863 110.669 139.926 110.669C140.692 110.669 141.29 110.515 141.72 110.207C142.149 109.892 142.364 109.455 142.364 108.896Z" fill="#888888"/>
<path d="M147.789 113V97.3594H152.602C153.977 97.3594 155.205 97.6709 156.286 98.2939C157.375 98.9098 158.223 99.7907 158.832 100.937C159.441 102.075 159.745 103.371 159.745 104.825V105.545C159.745 106.999 159.444 108.291 158.843 109.423C158.248 110.554 157.407 111.432 156.318 112.055C155.23 112.678 154.002 112.993 152.634 113H147.789ZM151.012 99.9697V110.411H152.569C153.83 110.411 154.793 109.999 155.459 109.176C156.125 108.352 156.465 107.174 156.479 105.642V104.814C156.479 103.225 156.15 102.021 155.491 101.205C154.832 100.382 153.869 99.9697 152.602 99.9697H151.012Z" fill="#888888"/>
<rect x="0.5" y="0.5" width="352" height="157" rx="11.5" stroke="#C8C8C8"/>
</svg>
