<svg width="353" height="158" viewBox="0 0 353 158" fill="none" xmlns="http://www.w3.org/2000/svg">
<path d="M81 128C108.062 128 130 106.062 130 79C130 51.938 108.062 30 81 30C53.938 30 32 51.938 32 79C32 106.062 53.938 128 81 128Z" fill="#F7931A"/>
<path d="M97.708 75.1613C97.708 75.1613 102.482 72.1445 102.482 66.813C102.482 66.813 103.078 56.2945 88.4901 55.5712V46.0653H82.8522V55.5712H78.2119V46.0653H72.5625V55.5712H61.3812C61.1256 55.5712 60.9183 55.7793 60.9183 56.0361V61.471C60.9183 61.7278 61.1256 61.9359 61.3812 61.9359H66.5251C67.474 61.9359 68.2433 62.7084 68.2433 63.6613V90.939C68.2433 91.7435 67.5939 92.3959 66.7926 92.3959H62.1729C62.0197 92.3959 61.8899 92.5089 61.8682 92.6612L60.9942 98.8054C60.9541 99.0873 61.1717 99.3392 61.4551 99.3392H72.5625V108.721H78.2116V99.3392H82.8522V108.721H88.4901V99.3804C88.4901 99.3804 105.815 99.3804 105.897 85.5353C105.898 85.5353 106.371 77.8089 97.708 75.1613ZM78.2119 61.9359C78.2119 61.9359 80.6165 61.9157 81.6543 61.9359C92.1733 62.1409 91.7771 67.5072 91.7771 67.5072C91.6794 74.3554 81.5756 73.8925 81.5756 73.8925H78.2119V61.9359ZM94.4776 85.7417C94.4776 92.458 83.6548 92.3959 83.6548 92.3959H78.2119V79.5837H85.4655C94.6834 79.5837 94.4776 85.7417 94.4776 85.7417Z" fill="white"/>
<path fill-rule="evenodd" clip-rule="evenodd" d="M179.858 58.3223L195.768 74.2322C196.744 75.2085 196.744 76.7914 195.768 77.7678L179.858 93.6777C178.882 94.654 177.299 94.654 176.322 93.6777C175.346 92.7013 175.346 91.1184 176.322 90.1421L187.964 78.5H153V73.5H187.964L176.322 61.8579C175.346 60.8815 175.346 59.2986 176.322 58.3223C177.299 57.346 178.882 57.346 179.858 58.3223Z" fill="#449BF7"/>
<rect x="0.5" y="0.5" width="352" height="157" rx="11.5" stroke="#C8C8C8"/>
<path fill-rule="evenodd" clip-rule="evenodd" d="M222 62.6672V30H254.667V62.6672H222ZM226.666 57.9994H249.999V34.6663H226.666V57.9994ZM282.667 30H259.333V34.6663H264V39.3326H268.666V34.6663H273.334V39.3326H278V44.0004L273.334 44.0004V48.6667L264.001 48.6667V44.0004H259.333V48.6667L264 48.6667V53.333H282.667V48.6667H278V44.0004H282.667V30ZM287.333 30V62.6672H320V30H287.333ZM315.332 57.9994H292.001V34.6663H315.334V57.9994H315.332ZM231.333 39.3326H245.333V53.333H231.333V39.3326ZM310.666 39.3326H296.665V53.333H310.666V39.3326ZM259.333 57.9994H264.001V62.6657H259.333V57.9994ZM273.334 57.9994H268.666V62.6657H273.334V57.9994ZM236 67.3334H231.333V76.666H226.666L226.666 71.9998H222V76.6661H226.666L226.666 81.3339H222V86.0002H226.666V90.6665H231.333V81.3339H236V76.666H240.667V86.0002H245.333V90.6665H259.333V95.3328H264V100.001H259.333V109.333H268.666V118.667L264.001 118.667V114H259.333V118.667L264 118.667V123.332H273.334V114H278V128H282.667V123.332H287.333V128H292.001V118.667H282.667V109.333L287.333 109.333L287.333 100.001H292.001V109.333H296.665V104.665H306V114H315.332V118.667H306V128H320V123.332H315.332V118.667H320V114L315.332 114V109.333H320V86.0002H315.332V90.6665H310.667V100.001H315.332V109.333H310.667V104.665H306V90.6665H301.333L301.333 86.0002H296.665V90.668H301.333L301.333 100.001H296.665V90.6665H292.001V95.3328H287.333V100.001L282.667 100.001L282.667 109.333H273.334V104.665H268.666V100.001H273.334V95.3328H278V90.6665L282.667 90.6665V95.3328H287.333V90.6665H292.001V71.9997H287.333V67.3334H282.667V58.0008H277.999V67.3334H268.666V62.6671H264V67.3334H259.332V71.9997L254.667 71.9997V67.3334H240.667V71.9997H236V67.3334ZM277.999 85.9987V90.6665L273.334 90.6665V86.0002H268.666V81.3339H264L264 76.6661H273.332V85.9987H277.999ZM273.332 76.6661V71.9997H277.999V76.6661H273.332ZM249.999 76.666L249.999 81.3339H254.667V76.666L259.332 76.6661V81.3339L264 81.3339V86.0002H249.999V81.3339H245.333V76.666H249.999ZM249.999 76.666V71.9997L254.666 71.9997V76.6661L249.999 76.666ZM306 67.3334H301.333V76.666L296.665 76.666V81.3339H301.333V76.666H306V67.3334ZM320 67.3334H315.332V71.9997H310.667V81.3339H320V67.3334ZM287.333 86.0002H282.667V76.6676H287.333V86.0002ZM222 128V95.3328H254.667V128H222ZM226.666 123.332H249.999V100.001H226.666V123.332ZM231.333 104.665H245.333V118.666H231.333V104.665ZM301.333 114H296.665V118.667H301.333V114ZM296.665 123.332H301.333V128H296.665V123.332Z" fill="#6E6E6E"/>
</svg>
