<svg width="353" height="158" viewBox="0 0 353 158" fill="none" xmlns="http://www.w3.org/2000/svg">
<path d="M71.2864 42.2273H67.1227V66.7727H71.2864V42.2273Z" fill="#6E6E6E"/>
<path d="M83.7773 42.2273H75.45V66.7727H83.7773V42.2273Z" fill="#6E6E6E"/>
<path d="M96.2682 42.2273H92.1046V66.7727H96.2682V42.2273Z" fill="#6E6E6E"/>
<path d="M108.759 42.2273H104.595V66.7727H108.759V42.2273Z" fill="#6E6E6E"/>
<path d="M117.086 42.2273H112.923V66.7727H117.086V42.2273Z" fill="#6E6E6E"/>
<path d="M125.414 42.2273H121.25V66.7727H125.414V42.2273Z" fill="#6E6E6E"/>
<path d="M142.068 42.2273H133.741V66.7727H142.068V42.2273Z" fill="#6E6E6E"/>
<path d="M154.559 42.2273H150.395V66.7727H154.559V42.2273Z" fill="#6E6E6E"/>
<path d="M162.886 42.2273H158.723V66.7727H162.886V42.2273Z" fill="#6E6E6E"/>
<path d="M175.377 42.2273H171.214V66.7727H175.377V42.2273Z" fill="#6E6E6E"/>
<path d="M187.868 42.2273H183.705V66.7727H187.868V42.2273Z" fill="#6E6E6E"/>
<path d="M200.359 42.2273H192.032V66.7727H200.359V42.2273Z" fill="#6E6E6E"/>
<path d="M208.686 42.2273H204.523V66.7727H208.686V42.2273Z" fill="#6E6E6E"/>
<path d="M221.177 42.2273H217.014V66.7727H221.177V42.2273Z" fill="#6E6E6E"/>
<path d="M233.668 42.2273H229.505V66.7727H233.668V42.2273Z" fill="#6E6E6E"/>
<path d="M246.159 42.2273H237.832V66.7727H246.159V42.2273Z" fill="#6E6E6E"/>
<path d="M254.486 42.2273H250.323V66.7727H254.486V42.2273Z" fill="#6E6E6E"/>
<path d="M266.977 42.2273H262.814V66.7727H266.977V42.2273Z" fill="#6E6E6E"/>
<path d="M279.468 42.2273H275.305V66.7727H279.468V42.2273Z" fill="#6E6E6E"/>
<path d="M291.959 42.2273H283.632V66.7727H291.959V42.2273Z" fill="#6E6E6E"/>
<rect x="0.5" y="0.5" width="352" height="157" rx="11.5" stroke="#C8C8C8"/>
<path d="M82.5142 112H78.2759L72.1455 97.7866V112H67.8618V89.9609H72.1455L78.2305 104.114L78.2456 89.9609H82.5142V112Z" fill="#6F6F6F"/>
<path d="M96.9286 108.655C98.0588 108.655 99.0376 108.534 99.8651 108.292C100.693 108.049 101.384 107.701 101.939 107.247C102.504 106.783 102.938 106.223 103.241 105.567C103.553 104.901 103.755 104.149 103.846 103.312C103.422 103.735 102.877 104.099 102.211 104.401C101.545 104.704 100.738 104.855 99.7894 104.855C98.7399 104.855 97.8166 104.664 97.0194 104.28C96.2222 103.897 95.5511 103.372 95.0062 102.706C94.4714 102.04 94.0627 101.258 93.7801 100.36C93.5077 99.4517 93.3714 98.4779 93.3714 97.4385C93.3714 96.3688 93.5379 95.3647 93.8709 94.4263C94.214 93.4777 94.7035 92.6502 95.3392 91.9438C95.9749 91.2375 96.7419 90.6825 97.64 90.2788C98.5482 89.8651 99.5674 89.6582 100.698 89.6582C101.848 89.6582 102.882 89.8802 103.801 90.3242C104.719 90.7682 105.496 91.3888 106.132 92.186C106.778 92.9832 107.267 93.9318 107.6 95.0317C107.943 96.1317 108.115 97.3376 108.115 98.6494V100.103C108.115 101.858 107.898 103.473 107.464 104.946C107.03 106.42 106.359 107.696 105.451 108.776C104.542 109.846 103.387 110.683 101.984 111.289C100.582 111.884 98.9064 112.182 96.9588 112.182H96.641V108.655H96.9286ZM100.788 101.601C101.172 101.601 101.525 101.546 101.848 101.435C102.181 101.324 102.479 101.172 102.741 100.98C103.014 100.779 103.246 100.547 103.437 100.284C103.639 100.012 103.801 99.7191 103.922 99.4062V97.9077C103.922 97.1004 103.836 96.394 103.664 95.7886C103.503 95.1831 103.276 94.6785 102.983 94.2749C102.691 93.8713 102.347 93.5685 101.954 93.3667C101.56 93.1649 101.137 93.064 100.682 93.064C100.188 93.064 99.744 93.1851 99.3504 93.4272C98.967 93.6593 98.644 93.9772 98.3817 94.3809C98.1193 94.7744 97.9175 95.2336 97.7762 95.7583C97.6349 96.2729 97.5643 96.8128 97.5643 97.3779C97.5643 97.943 97.6299 98.4829 97.7611 98.9976C97.8923 99.5122 98.089 99.9613 98.3514 100.345C98.6239 100.728 98.9619 101.036 99.3656 101.268C99.7692 101.49 100.243 101.601 100.788 101.601Z" fill="#6F6F6F"/>
<path d="M135.986 93.4272H129.189V112H124.921V93.4272H118.215V89.9609H135.986V93.4272Z" fill="#6F6F6F"/>
<path d="M161.889 93.4272H155.092V112H150.824V93.4272H144.118V89.9609H161.889V93.4272Z" fill="#6F6F6F"/>
<path d="M186.49 103.978H173.881V100.572H186.49V103.978Z" fill="#6F6F6F"/>
<path d="M200.541 108.655C201.671 108.655 202.65 108.534 203.478 108.292C204.305 108.049 204.996 107.701 205.551 107.247C206.117 106.783 206.55 106.223 206.853 105.567C207.166 104.901 207.368 104.149 207.459 103.312C207.035 103.735 206.49 104.099 205.824 104.401C205.158 104.704 204.351 104.855 203.402 104.855C202.353 104.855 201.429 104.664 200.632 104.28C199.835 103.897 199.164 103.372 198.619 102.706C198.084 102.04 197.675 101.258 197.393 100.36C197.12 99.4517 196.984 98.4779 196.984 97.4385C196.984 96.3688 197.151 95.3647 197.484 94.4263C197.827 93.4777 198.316 92.6502 198.952 91.9438C199.588 91.2375 200.355 90.6825 201.253 90.2788C202.161 89.8651 203.18 89.6582 204.31 89.6582C205.461 89.6582 206.495 89.8802 207.413 90.3242C208.332 90.7682 209.109 91.3888 209.744 92.186C210.39 92.9832 210.88 93.9318 211.213 95.0317C211.556 96.1317 211.727 97.3376 211.727 98.6494V100.103C211.727 101.858 211.51 103.473 211.076 104.946C210.642 106.42 209.971 107.696 209.063 108.776C208.155 109.846 207 110.683 205.597 111.289C204.194 111.884 202.519 112.182 200.571 112.182H200.254V108.655H200.541ZM204.401 101.601C204.785 101.601 205.138 101.546 205.461 101.435C205.794 101.324 206.091 101.172 206.354 100.98C206.626 100.779 206.858 100.547 207.05 100.284C207.252 100.012 207.413 99.7191 207.534 99.4062V97.9077C207.534 97.1004 207.449 96.394 207.277 95.7886C207.116 95.1831 206.889 94.6785 206.596 94.2749C206.303 93.8713 205.96 93.5685 205.567 93.3667C205.173 93.1649 204.749 93.064 204.295 93.064C203.801 93.064 203.357 93.1851 202.963 93.4272C202.58 93.6593 202.257 93.9772 201.994 94.3809C201.732 94.7744 201.53 95.2336 201.389 95.7583C201.248 96.2729 201.177 96.8128 201.177 97.3779C201.177 97.943 201.243 98.4829 201.374 98.9976C201.505 99.5122 201.702 99.9613 201.964 100.345C202.237 100.728 202.575 101.036 202.978 101.268C203.382 101.49 203.856 101.601 204.401 101.601Z" fill="#6F6F6F"/>
<path d="M238.554 109.427C238.281 109.76 237.908 110.098 237.434 110.441C236.959 110.784 236.394 111.097 235.738 111.379C235.092 111.652 234.366 111.874 233.559 112.045C232.751 112.217 231.883 112.303 230.955 112.303C229.704 112.303 228.574 112.081 227.564 111.637C226.555 111.193 225.693 110.552 224.976 109.714C224.26 108.877 223.705 107.853 223.311 106.642C222.928 105.421 222.736 104.038 222.736 102.494V99.4971C222.736 97.9531 222.938 96.5757 223.341 95.3647C223.755 94.1437 224.32 93.1094 225.037 92.2617C225.763 91.4141 226.611 90.7682 227.58 90.3242C228.558 89.8802 229.618 89.6582 230.758 89.6582C232 89.6582 233.079 89.8146 233.998 90.1274C234.926 90.4403 235.708 90.8944 236.344 91.4897C236.98 92.075 237.474 92.7915 237.827 93.6392C238.19 94.4868 238.428 95.4404 238.539 96.5H234.391C234.25 95.3698 233.907 94.5221 233.362 93.957C232.827 93.3818 231.994 93.0942 230.864 93.0942C230.319 93.0942 229.815 93.2355 229.351 93.5181C228.886 93.7905 228.483 94.1942 228.14 94.729C227.797 95.2638 227.524 95.9299 227.322 96.7271C227.12 97.5142 227.02 98.4274 227.02 99.4668V102.494C227.03 104.553 227.373 106.132 228.049 107.232C228.725 108.322 229.759 108.872 231.152 108.882C231.485 108.882 231.813 108.857 232.136 108.806C232.459 108.756 232.761 108.685 233.044 108.594C233.327 108.503 233.574 108.403 233.786 108.292C234.008 108.17 234.174 108.044 234.285 107.913L234.3 103.917H230.652V100.738H238.539L238.554 109.427Z" fill="#6F6F6F"/>
<path d="M263.806 103.614C263.806 105.037 263.64 106.293 263.307 107.383C262.984 108.463 262.514 109.371 261.899 110.108C261.283 110.834 260.531 111.384 259.643 111.758C258.755 112.131 257.756 112.318 256.646 112.318C255.546 112.318 254.552 112.131 253.664 111.758C252.776 111.384 252.02 110.834 251.394 110.108C250.778 109.371 250.299 108.463 249.956 107.383C249.623 106.293 249.456 105.037 249.456 103.614V98.3467C249.456 96.9238 249.623 95.6725 249.956 94.5928C250.289 93.5029 250.763 92.5947 251.379 91.8682C252.004 91.1315 252.756 90.5765 253.634 90.2031C254.522 89.8298 255.516 89.6431 256.616 89.6431C257.726 89.6431 258.725 89.8298 259.613 90.2031C260.501 90.5765 261.253 91.1315 261.869 91.8682C262.494 92.5947 262.974 93.5029 263.307 94.5928C263.64 95.6725 263.806 96.9238 263.806 98.3467V103.614ZM253.695 101.798L259.568 97.4233C259.537 95.9399 259.28 94.84 258.796 94.1235C258.311 93.4071 257.585 93.0488 256.616 93.0488C255.637 93.0488 254.906 93.4272 254.421 94.1841C253.937 94.9409 253.695 96.1064 253.695 97.6807V101.798ZM259.568 100.284L253.695 104.644C253.745 106.097 254.013 107.176 254.497 107.883C254.981 108.579 255.698 108.927 256.646 108.927C257.635 108.927 258.367 108.544 258.841 107.777C259.326 107.01 259.568 105.834 259.568 104.25V100.284Z" fill="#6F6F6F"/>
<path d="M286.046 107.398H279.431L278.13 112H273.649L280.869 89.9609H284.729L291.813 112H287.333L286.046 107.398ZM280.476 103.781H285.047L282.792 95.6675L280.476 103.781Z" fill="#6F6F6F"/>
</svg>
